<svg xmlns="http://www.w3.org/2000/svg" viewBox="0 0 510 510">
<style>
    path {
      fill: black;
    }
    @media (prefers-color-scheme: dark) {
      path {
        fill: white;
      }
    }
</style>
<path d="M 354 158 c 2 2 3 5 3 8 c 0 2 -1 5 -3 7 c -4 4 -11 4 -15 0 c -12 -12 -33 -12 -45 0 c -6 6 -10 14 -10 23 c 0 8 4 16 10 22 c 4 4 4 11 0 15 c -4 4 -11 4 -15 0 c -6 -6 -14 -9 -23 -9 c 0 0 0 0 0 0 c -9 0 -17 3 -23 9 c -6 6 -9 14 -9 23 c 0 9 3 17 9 23 c 2 2 3 4 3 7 c 0 3 -1 6 -3 8 c -2 2 -4 3 -7 3 c 0 0 0 0 0 0 c -3 0 -6 -1 -8 -3 c -12 -13 -33 -13 -45 0 c -12 12 -12 32 0 45 c 2 2 3 5 3 8 c 0 2 -1 5 -3 7 c -4 4 -11 4 -15 0 c -12 -12 -33 -12 -45 0 c -6 6 -10 14 -10 23 c 0 8 4 16 10 22 c 4 4 4 11 0 15 c -4 5 -11 5 -15 0 c -5 -4 -11 -4 -15 0 c -5 5 -5 11 -1 15 c 13 13 33 13 46 0 c 12 -12 12 -32 0 -45 c -2 -2 -3 -4 -3 -7 c 0 -3 1 -6 3 -8 c 4 -4 11 -4 15 0 c 12 12 33 12 45 0 c 6 -6 9 -14 9 -22 c 0 -9 -3 -17 -9 -23 c -4 -4 -4 -11 0 -15 c 4 -4 11 -4 15 0 c 6 6 14 9 23 9 c 0 0 0 0 0 0 c 8 0 16 -3 22 -9 c 7 -6 10 -14 10 -23 c 0 -8 -3 -16 -10 -22 c -2 -2 -3 -5 -3 -8 c 0 -3 1 -6 3 -8 c 2 -2 5 -3 8 -3 c 3 0 6 1 8 3 c 12 13 33 13 45 0 c 12 -12 12 -32 0 -45 c -4 -4 -4 -11 0 -15 c 4 -4 11 -4 15 0 c 12 12 33 12 45 0 c 6 -6 10 -14 10 -23 c 0 -8 -4 -16 -10 -22 c -4 -4 -4 -11 0 -15 c 4 -4 11 -4 15 0 c 13 12 33 12 45 0 c 13 -13 13 -33 0 -45 c -2 -3 -4 -4 -7 -4 c -3 0 -6 1 -8 4 c -4 4 -4 10 0 15 c 5 4 5 11 0 15 c -4 4 -11 4 -15 0 c -12 -13 -32 -13 -45 0 c -12 12 -12 32 0 45 z m -322 235 c -4 24 2 49 20 67 c 14 14 33 22 53 22 c 5 0 9 -1 13 -2 c 48 40 100 41 138 2 l 226 -226 c 32 -31 44 -87 -2 -137 c 4 -24 -2 -49 -20 -67 c -14 -14 -33 -22 -53 -22 c -5 0 -9 1 -14 2 c -20 -20 -44 -30 -70 -30 c 0 0 0 0 0 0 c -25 0 -49 10 -67 28 l -226 226 c -32 32 -44 87 2 137 z m 435 -152 l -226 226 c -28 28 -63 29 -99 5 c 6 -4 11 -8 16 -12 l 302 -302 c 5 -5 9 -10 12 -16 c 27 37 19 76 -5 99 z m -22 -174 c 20 21 20 55 0 76 l -302 302 c -10 10 -24 15 -38 15 c -14 0 -27 -5 -38 -15 c -20 -21 -20 -55 0 -76 l 302 -302 c 10 -10 24 -15 38 -15 c 14 0 27 5 38 15 z m -400 204 l 226 -226 c 14 -14 33 -22 52 -22 c 17 0 33 6 47 17 c -6 3 -11 7 -16 12 l -302 302 c -5 5 -9 10 -12 16 c -29 -40 -17 -77 5 -99 z"/>
</svg>
